<svg width="888" height="1465" viewBox="0 0 888 1465" fill="none" xmlns="http://www.w3.org/2000/svg">
<path d="M735.499 304.5C735.499 347.302 686.272 351.5 635.738 351.5C585.204 351.5 512.738 324.302 512.738 281.5C512.738 238.698 579.465 154.5 629.999 154.5C680.533 154.5 735.499 261.698 735.499 304.5Z" fill="#D9D9D9"/>
<path d="M605.171 153.428C597.621 242.504 540.963 239.542 390.465 351.257C239.966 462.971 237.233 637.57 84.4944 578.378C-58.325 476.183 -5.34045 168.619 145.158 56.9048C295.656 -54.8097 573.563 12.7618 605.171 153.428Z" fill="url(#paint0_linear_650_4164)"/>
<path d="M167.233 1179.18C-28.7843 995.12 138.251 669.341 402.358 719.828C472.48 733.232 545.16 718.215 604.182 678.05L696.038 615.542C720.616 598.817 750.441 591.608 779.945 595.262C862.473 605.482 911.008 693.254 875.786 768.585L812.639 903.639C789.016 954.162 784.494 1011.53 799.909 1065.13L845.157 1222.46C854.938 1256.47 854.999 1292.54 845.331 1326.59C810.731 1448.43 668.62 1502.66 561.64 1434.85L207.283 1210.23C192.984 1201.17 179.575 1190.77 167.233 1179.18Z" fill="url(#paint1_linear_650_4164)"/>
<defs>
<linearGradient id="paint0_linear_650_4164" x1="37.732" y1="1131.49" x2="874.237" y2="1093.41" gradientUnits="userSpaceOnUse">
<stop stop-color="#4F4C9B"/>
<stop offset="1" stop-color="#704DA8"/>
</linearGradient>
<linearGradient id="paint1_linear_650_4164" x1="337.741" y1="1278.76" x2="728.776" y2="712.54" gradientUnits="userSpaceOnUse">
<stop stop-color="#EA6C2D"/>
<stop offset="1" stop-color="#EE7E2C"/>
</linearGradient>
</defs>
</svg>
